# xmcd
#
# Track frame offsets: 
#        183
#        13303
#        26000
#        39938
#        51918
#        63265
#        72753
#        83068
#        92785
#        104238
#        117870
#        130023
#        142985
#        150583
#        160708
#        171563
#        181328
#        199265
#
# Disc length: 2845 seconds
#
# Revision: 2
# Processed by: cddbd v1.5.1PL2 Copyright (c) Steve Scherf et al.
# Submitted via: ExactAudioCopy v0.95b3
#
DISCID=f50b1b12
DTITLE=Slim Harpo - The Best of Slim Harpo
DYEAR=1900
DGENRE=Blues
TTITLE0=Baby Scratch My Back 1965
TTITLE1=I Got Love If You Want It 1957
TTITLE2=I'm A King Bee 1957
TTITLE3=Little Queen Bee 1964
TTITLE4=Shake Your Hips 1966
TTITLE5=Te-Ni-Nee-Ni-Nu 1968
TTITLE6=Buzz Me Babe 1960
TTITLE7=Buzzin' 1963
TTITLE8=Rainin' In My Heart 1961
TTITLE9=Still Rainin' In My Heart 1964
TTITLE10=Late Last Night 1960
TTITLE11=Tip On In, Part 1 1967
TTITLE12=Bobby Sox Baby1961
TTITLE13=Don't Start Cryin' Now 1961
TTITLE14=I Need Money 1964
TTITLE15=Strange Love 1958
TTITLE16=Rock Me Baby 1976
TTITLE17=Blues Hang-over 1960
EXTD=Rhino 70169\n\nSubmitted 6/8/97\n[Jmccoy@efn.org]
EXTT0=
EXTT1=
EXTT2=
EXTT3=
EXTT4=
EXTT5=
EXTT6=
EXTT7=
EXTT8=
EXTT9=
EXTT10=
EXTT11=
EXTT12=
EXTT13=
EXTT14=
EXTT15=
EXTT16=
EXTT17=
PLAYORDER=
